<?xml version="1.0"?>
<svg xmlns="http://www.w3.org/2000/svg" viewBox="0 0 24 24">
    <path d="M 4 3 C 2.897 3 2 3.897 2 5 L 2 19 C 2 20.103 2.897 21 4 21 L 20 21 C 21.103 21 22 20.103 22 19 L 22 5 C 22 3.897 21.103 3 20 3 L 4 3 z M 4 5 L 11 5 L 11 19 L 4 19 L 4 5 z M 14.5 5 C 15.328 5 16 5.672 16 6.5 C 16 7.328 15.328 8 14.5 8 C 13.672 8 13 7.328 13 6.5 C 13 5.672 13.672 5 14.5 5 z M 18.5 5 C 19.328 5 20 5.672 20 6.5 C 20 7.328 19.328 8 18.5 8 C 17.672 8 17 7.328 17 6.5 C 17 5.672 17.672 5 18.5 5 z M 13 10 L 20 10 L 20 13 L 13 13 L 13 10 z"/>
</svg>
