<?xml version="1.0"?>
<svg xmlns="http://www.w3.org/2000/svg" width="24" height="24" viewBox="0 0 24 24">
    <path d="M 3 0 C 1.3431458 0 0 1.3431458 0 3 C 0 4.6568542 1.3431458 6 3 6 C 3.6529955 6 4.2574803 5.7917384 4.75 5.4375 L 8.15625 8.84375 C 7.4429706 9.7080448 7 10.791877 7 12 C 7 13.208123 7.4429706 14.291955 8.15625 15.15625 L 4.75 18.5625 C 4.2574803 18.208262 3.6529955 18 3 18 C 1.3431458 18 0 19.343146 0 21 C 0 22.656854 1.3431458 24 3 24 C 4.6568542 24 6 22.656854 6 21 C 6 20.347005 5.7917384 19.74252 5.4375 19.25 L 8.84375 15.84375 C 9.7080448 16.557029 10.791877 17 12 17 C 12.842607 17 13.615999 16.774362 14.3125 16.40625 L 15.9375 18.8125 C 15.357601 19.359512 15 20.139898 15 21 C 15 22.656854 16.343146 24 18 24 C 19.656854 24 21 22.656854 21 21 C 21 19.343146 19.656854 18 18 18 C 17.561145 18 17.156957 18.111916 16.78125 18.28125 L 15.15625 15.84375 C 16.003259 15.144736 16.631416 14.173335 16.875 13.0625 L 18.03125 13.1875 C 18.132166 14.753039 19.408966 16 21 16 C 22.656854 16 24 14.656854 24 13 C 24 11.343146 22.656854 10 21 10 C 19.629644 10 18.483726 10.932332 18.125 12.1875 L 17 12.0625 C 17.00027 12.041074 17 12.02149 17 12 C 17 10.305233 16.133507 8.8105171 14.84375 7.90625 L 16.03125 5.8125 C 16.339888 5.9197841 16.654822 6 17 6 C 18.656854 6 20 4.6568542 20 3 C 20 1.3431458 18.656854 0 17 0 C 15.343146 0 14 1.3431458 14 3 C 14 3.9478181 14.438625 4.7939728 15.125 5.34375 L 13.96875 7.40625 C 13.363595 7.1461998 12.700431 7 12 7 C 10.791877 7 9.7080448 7.4429706 8.84375 8.15625 L 5.4375 4.75 C 5.7917384 4.2574803 6 3.6529955 6 3 C 6 1.3431458 4.6568542 0 3 0 z"/>
</svg>
