<?xml version="1.0"?>
<svg xmlns="http://www.w3.org/2000/svg" width="24" height="24" viewBox="0 0 24 24">
    <path style="text-indent:0;text-align:start;line-height:normal;text-transform:none;block-progression:tb;-inkscape-font-specification:Bitstream Vera Sans" d="M 22 0 C 20.895431 0 20 0.8954305 20 2 C 20 2.3992632 20.110924 2.7815498 20.3125 3.09375 L 18.40625 6.03125 C 18.276055 6.0046082 18.138071 6 18 6 C 17.569599 6 17.170041 6.1436937 16.84375 6.375 L 14.96875 5.25 C 14.979109 5.1675298 15 5.0852793 15 5 C 15 3.8954305 14.104569 3 13 3 C 11.895431 3 11 3.8954305 11 5 C 11 5.1829443 11.016492 5.3628978 11.0625 5.53125 L 8.9375 7.25 C 8.6569454 7.100054 8.3403411 7 8 7 C 6.8954305 7 6 7.8954305 6 9 C 6 9.0422335 5.9974202 9.0834163 6 9.125 L 3.28125 10.46875 C 2.9342156 10.178875 2.4875341 10 2 10 C 0.8954305 10 0 10.895431 0 12 C 0 13.104569 0.8954305 14 2 14 C 3.1045695 14 4 13.104569 4 12 C 4 11.968325 4.0014565 11.937565 4 11.90625 L 6.71875 10.53125 C 7.0657844 10.821125 7.5124659 11 8 11 C 9.1045695 11 10 10.104569 10 9 C 10 8.8170557 9.9835082 8.6371022 9.9375 8.46875 L 12.0625 6.75 C 12.343055 6.899946 12.659659 7 13 7 C 13.430401 7 13.829959 6.8563063 14.15625 6.625 L 16.03125 7.75 C 16.020891 7.8324702 16 7.9147207 16 8 C 16 9.1045695 16.895431 10 18 10 C 19.104569 10 20 9.1045695 20 8 C 20 7.6007368 19.889076 7.2184502 19.6875 6.90625 L 21.625 3.96875 C 21.745883 3.9915604 21.872487 4 22 4 C 23.104569 4 24 3.1045695 24 2 C 24 0.8954305 23.104569 0 22 0 z M 22 13 C 20.895431 13 20 13.895431 20 15 C 20 15.364965 20.110492 15.705456 20.28125 16 L 18.34375 19.03125 C 18.2323 19.011987 18.116954 19 18 19 C 17.737665 19 17.479548 19.033178 17.25 19.125 L 14.875 16.75 C 14.966822 16.520452 15 16.262335 15 16 C 15 14.895431 14.104569 14 13 14 C 11.895431 14 11 14.895431 11 16 C 11 16.182944 11.016492 16.362898 11.0625 16.53125 L 8.9375 18.25 C 8.6569454 18.100054 8.3403411 18 8 18 C 7.2946937 18 6.6685885 18.354742 6.3125 18.90625 L 3.9375 18.53125 C 3.7257306 17.653956 2.9423359 17 2 17 C 0.8954305 17 0 17.895431 0 19 C 0 20.104569 0.8954305 21 2 21 C 2.7053063 21 3.3314115 20.645258 3.6875 20.09375 L 6.0625 20.46875 C 6.2742694 21.346044 7.0576641 22 8 22 C 9.1045695 22 10 21.104569 10 20 C 10 19.817056 9.9835082 19.637102 9.9375 19.46875 L 12.0625 17.75 C 12.343055 17.899946 12.659659 18 13 18 C 13.262335 18 13.520452 17.966822 13.75 17.875 L 16.125 20.25 C 16.033178 20.479548 16 20.737665 16 21 C 16 22.104569 16.895431 23 18 23 C 19.104569 23 20 22.104569 20 21 C 20 20.585787 19.871899 20.194202 19.65625 19.875 L 21.5625 16.96875 C 21.701709 16.999422 21.851574 17 22 17 C 23.104569 17 24 16.104569 24 15 C 24 13.895431 23.104569 13 22 13 z"/>
</svg>
