<?xml version="1.0"?>
<svg xmlns="http://www.w3.org/2000/svg" viewBox="0 0 24 24" enable-background="new 0 0 24 24">
    <path style="text-indent:0;text-align:start;line-height:normal;text-transform:none;block-progression:tb;-inkscape-font-specification:Bitstream Vera Sans" d="M 4 3 C 3.4777778 3 2.9395305 3.1854695 2.5625 3.5625 C 2.1854695 3.9395305 2 4.4777778 2 5 L 2 19 C 2 19.522222 2.1854695 20.060469 2.5625 20.4375 C 2.9395305 20.814531 3.4777778 21 4 21 L 20 21 C 20.522222 21 21.060469 20.814531 21.4375 20.4375 C 21.814531 20.060469 22 19.522222 22 19 L 22 5 C 22 4.4777778 21.814531 3.9395305 21.4375 3.5625 C 21.060469 3.1854695 20.522222 3 20 3 L 4 3 z M 5.5 5 C 6.3 5 7 5.7 7 6.5 C 7 7.3 6.3 8 5.5 8 C 4.7 8 4 7.3 4 6.5 C 4 5.7 4.7 5 5.5 5 z M 9.5 5 C 10.3 5 11 5.7 11 6.5 C 11 7.3 10.3 8 9.5 8 C 8.7 8 8 7.3 8 6.5 C 8 5.7 8.7 5 9.5 5 z M 13 5 L 20 5 L 20 19 L 13 19 L 13 5 z M 4 10 L 11 10 L 11 13 L 4 13 L 4 10 z" overflow="visible" enable-background="accumulate" font-family="Bitstream Vera Sans"/>
</svg>
